<svg xmlns="http://www.w3.org/2000/svg" viewBox="0 0 512 512"><rect width="512" height="512" rx="108" fill="#227963"/><circle cx="256" cy="256" r="194" fill="#edf6ef"/><path d="M229 123h54v97l82 135q15 30-20 30H166q-34 0-19-30l82-135Z" fill="#e5eff3" stroke="#227963" stroke-width="18"/><path d="M189 286h135l40 66q7 19-17 19H166q-24 0-17-19Z" fill="#71b9a1"/><path d="M224 122h64" stroke="#227963" stroke-width="19" stroke-linecap="round"/><circle cx="277" cy="300" r="12" fill="#ecf6ed"/><circle cx="235" cy="334" r="15" fill="#ecf6ed"/><path d="M329 135q69-41 80-14q-7 69-80 48Z" fill="#78b360"/><path d="M335 162l59-34" fill="none" stroke="#edf6ef" stroke-width="6"/></svg>
